<mxfile host="app.diagrams.net" modified="2023-03-30T12:30:37.075Z" agent="Mozilla/5.0 (Windows NT 10.0; Win64; x64) AppleWebKit/537.36 (KHTML, like Gecko) Chrome/111.0.0.0 Safari/537.36 Edg/111.0.1661.54" etag="U6EU1OEbqBiUPC3iRbvs" version="21.1.2" type="github">
  <diagram id="R2lEEEUBdFMjLlhIrx00" name="Page-1">
    <mxGraphModel dx="2204" dy="1860" grid="1" gridSize="10" guides="1" tooltips="1" connect="1" arrows="1" fold="1" page="1" pageScale="1" pageWidth="850" pageHeight="1100" math="0" shadow="0" extFonts="Permanent Marker^https://fonts.googleapis.com/css?family=Permanent+Marker">
      <root>
        <mxCell id="0" />
        <mxCell id="1" parent="0" />
        <mxCell id="HFJ3twSGi6CWd9iWEhQo-2" value="بیمار" style="rounded=0;whiteSpace=wrap;html=1;" vertex="1" parent="1">
          <mxGeometry x="220" y="100" width="80" height="40" as="geometry" />
        </mxCell>
        <mxCell id="HFJ3twSGi6CWd9iWEhQo-4" value="نام" style="ellipse;whiteSpace=wrap;html=1;" vertex="1" parent="1">
          <mxGeometry x="290" y="30" width="60" height="30" as="geometry" />
        </mxCell>
        <mxCell id="HFJ3twSGi6CWd9iWEhQo-7" value="نام خانوادگی" style="ellipse;whiteSpace=wrap;html=1;" vertex="1" parent="1">
          <mxGeometry x="230" y="20" width="60" height="30" as="geometry" />
        </mxCell>
        <mxCell id="HFJ3twSGi6CWd9iWEhQo-8" value="جنسیت" style="ellipse;whiteSpace=wrap;html=1;" vertex="1" parent="1">
          <mxGeometry x="110" y="100" width="60" height="30" as="geometry" />
        </mxCell>
        <mxCell id="HFJ3twSGi6CWd9iWEhQo-9" value="تاریخ تولد" style="ellipse;whiteSpace=wrap;html=1;" vertex="1" parent="1">
          <mxGeometry x="170" y="20" width="60" height="30" as="geometry" />
        </mxCell>
        <mxCell id="HFJ3twSGi6CWd9iWEhQo-11" value="سن" style="ellipse;whiteSpace=wrap;html=1;align=center;dashed=1;" vertex="1" parent="1">
          <mxGeometry x="320" y="60" width="60" height="30" as="geometry" />
        </mxCell>
        <mxCell id="HFJ3twSGi6CWd9iWEhQo-13" value="آدرس" style="ellipse;whiteSpace=wrap;html=1;" vertex="1" parent="1">
          <mxGeometry x="120" y="130" width="60" height="30" as="geometry" />
        </mxCell>
        <mxCell id="HFJ3twSGi6CWd9iWEhQo-15" value="شماره تماس" style="ellipse;shape=doubleEllipse;margin=3;whiteSpace=wrap;html=1;align=center;" vertex="1" parent="1">
          <mxGeometry x="340" y="90" width="60" height="30" as="geometry" />
        </mxCell>
        <mxCell id="HFJ3twSGi6CWd9iWEhQo-16" value="کد ملی" style="ellipse;whiteSpace=wrap;html=1;" vertex="1" parent="1">
          <mxGeometry x="130" y="40" width="60" height="30" as="geometry" />
        </mxCell>
        <mxCell id="HFJ3twSGi6CWd9iWEhQo-17" value="شماره بیمه" style="ellipse;whiteSpace=wrap;html=1;" vertex="1" parent="1">
          <mxGeometry x="110" y="70" width="60" height="30" as="geometry" />
        </mxCell>
        <mxCell id="HFJ3twSGi6CWd9iWEhQo-18" value="" style="endArrow=none;html=1;rounded=0;exitX=1;exitY=0.5;exitDx=0;exitDy=0;" edge="1" parent="1" source="HFJ3twSGi6CWd9iWEhQo-13">
          <mxGeometry relative="1" as="geometry">
            <mxPoint x="110" y="130" as="sourcePoint" />
            <mxPoint x="220" y="140" as="targetPoint" />
          </mxGeometry>
        </mxCell>
        <mxCell id="HFJ3twSGi6CWd9iWEhQo-19" value="" style="endArrow=none;html=1;rounded=0;exitX=1;exitY=0.5;exitDx=0;exitDy=0;entryX=0;entryY=0.5;entryDx=0;entryDy=0;" edge="1" parent="1" source="HFJ3twSGi6CWd9iWEhQo-8" target="HFJ3twSGi6CWd9iWEhQo-2">
          <mxGeometry relative="1" as="geometry">
            <mxPoint x="190" y="155" as="sourcePoint" />
            <mxPoint x="230" y="150" as="targetPoint" />
          </mxGeometry>
        </mxCell>
        <mxCell id="HFJ3twSGi6CWd9iWEhQo-20" value="" style="endArrow=none;html=1;rounded=0;exitX=1;exitY=0.5;exitDx=0;exitDy=0;entryX=0;entryY=0.25;entryDx=0;entryDy=0;" edge="1" parent="1" source="HFJ3twSGi6CWd9iWEhQo-17" target="HFJ3twSGi6CWd9iWEhQo-2">
          <mxGeometry relative="1" as="geometry">
            <mxPoint x="340" y="170" as="sourcePoint" />
            <mxPoint x="500" y="170" as="targetPoint" />
          </mxGeometry>
        </mxCell>
        <mxCell id="HFJ3twSGi6CWd9iWEhQo-21" value="" style="endArrow=none;html=1;rounded=0;exitX=1;exitY=1;exitDx=0;exitDy=0;entryX=0;entryY=0;entryDx=0;entryDy=0;" edge="1" parent="1" source="HFJ3twSGi6CWd9iWEhQo-16" target="HFJ3twSGi6CWd9iWEhQo-2">
          <mxGeometry relative="1" as="geometry">
            <mxPoint x="340" y="170" as="sourcePoint" />
            <mxPoint x="500" y="170" as="targetPoint" />
          </mxGeometry>
        </mxCell>
        <mxCell id="HFJ3twSGi6CWd9iWEhQo-22" value="" style="endArrow=none;html=1;rounded=0;exitX=0.5;exitY=1;exitDx=0;exitDy=0;entryX=0.25;entryY=0;entryDx=0;entryDy=0;" edge="1" parent="1" source="HFJ3twSGi6CWd9iWEhQo-9" target="HFJ3twSGi6CWd9iWEhQo-2">
          <mxGeometry relative="1" as="geometry">
            <mxPoint x="340" y="170" as="sourcePoint" />
            <mxPoint x="500" y="170" as="targetPoint" />
          </mxGeometry>
        </mxCell>
        <mxCell id="HFJ3twSGi6CWd9iWEhQo-23" value="" style="endArrow=none;html=1;rounded=0;exitX=0.5;exitY=1;exitDx=0;exitDy=0;entryX=0.5;entryY=0;entryDx=0;entryDy=0;" edge="1" parent="1" source="HFJ3twSGi6CWd9iWEhQo-7" target="HFJ3twSGi6CWd9iWEhQo-2">
          <mxGeometry relative="1" as="geometry">
            <mxPoint x="340" y="170" as="sourcePoint" />
            <mxPoint x="500" y="170" as="targetPoint" />
          </mxGeometry>
        </mxCell>
        <mxCell id="HFJ3twSGi6CWd9iWEhQo-24" value="" style="endArrow=none;html=1;rounded=0;exitX=0;exitY=1;exitDx=0;exitDy=0;entryX=0.75;entryY=0;entryDx=0;entryDy=0;" edge="1" parent="1" source="HFJ3twSGi6CWd9iWEhQo-4" target="HFJ3twSGi6CWd9iWEhQo-2">
          <mxGeometry relative="1" as="geometry">
            <mxPoint x="340" y="170" as="sourcePoint" />
            <mxPoint x="500" y="170" as="targetPoint" />
          </mxGeometry>
        </mxCell>
        <mxCell id="HFJ3twSGi6CWd9iWEhQo-25" value="" style="endArrow=none;html=1;rounded=0;exitX=0.017;exitY=0.733;exitDx=0;exitDy=0;exitPerimeter=0;entryX=1;entryY=0;entryDx=0;entryDy=0;" edge="1" parent="1" source="HFJ3twSGi6CWd9iWEhQo-11" target="HFJ3twSGi6CWd9iWEhQo-2">
          <mxGeometry relative="1" as="geometry">
            <mxPoint x="340" y="170" as="sourcePoint" />
            <mxPoint x="500" y="170" as="targetPoint" />
          </mxGeometry>
        </mxCell>
        <mxCell id="HFJ3twSGi6CWd9iWEhQo-26" value="" style="endArrow=none;html=1;rounded=0;exitX=0;exitY=0.5;exitDx=0;exitDy=0;entryX=1;entryY=0.5;entryDx=0;entryDy=0;" edge="1" parent="1" source="HFJ3twSGi6CWd9iWEhQo-15" target="HFJ3twSGi6CWd9iWEhQo-2">
          <mxGeometry relative="1" as="geometry">
            <mxPoint x="340" y="170" as="sourcePoint" />
            <mxPoint x="500" y="170" as="targetPoint" />
          </mxGeometry>
        </mxCell>
        <mxCell id="HFJ3twSGi6CWd9iWEhQo-30" value="کوچه" style="ellipse;whiteSpace=wrap;html=1;" vertex="1" parent="1">
          <mxGeometry x="40" y="170" width="60" height="30" as="geometry" />
        </mxCell>
        <mxCell id="HFJ3twSGi6CWd9iWEhQo-31" value="خیابان" style="ellipse;whiteSpace=wrap;html=1;" vertex="1" parent="1">
          <mxGeometry x="40" y="140" width="60" height="30" as="geometry" />
        </mxCell>
        <mxCell id="HFJ3twSGi6CWd9iWEhQo-32" value="شهر" style="ellipse;whiteSpace=wrap;html=1;" vertex="1" parent="1">
          <mxGeometry x="40" y="110" width="60" height="30" as="geometry" />
        </mxCell>
        <mxCell id="HFJ3twSGi6CWd9iWEhQo-33" value="" style="endArrow=none;html=1;rounded=0;exitX=1;exitY=0.5;exitDx=0;exitDy=0;entryX=0;entryY=0;entryDx=0;entryDy=0;" edge="1" parent="1" source="HFJ3twSGi6CWd9iWEhQo-32" target="HFJ3twSGi6CWd9iWEhQo-13">
          <mxGeometry relative="1" as="geometry">
            <mxPoint x="340" y="170" as="sourcePoint" />
            <mxPoint x="500" y="170" as="targetPoint" />
          </mxGeometry>
        </mxCell>
        <mxCell id="HFJ3twSGi6CWd9iWEhQo-34" value="" style="endArrow=none;html=1;rounded=0;exitX=1;exitY=0.5;exitDx=0;exitDy=0;entryX=0;entryY=0.5;entryDx=0;entryDy=0;" edge="1" parent="1" source="HFJ3twSGi6CWd9iWEhQo-31" target="HFJ3twSGi6CWd9iWEhQo-13">
          <mxGeometry relative="1" as="geometry">
            <mxPoint x="340" y="170" as="sourcePoint" />
            <mxPoint x="500" y="170" as="targetPoint" />
          </mxGeometry>
        </mxCell>
        <mxCell id="HFJ3twSGi6CWd9iWEhQo-35" value="" style="endArrow=none;html=1;rounded=0;exitX=1;exitY=0.5;exitDx=0;exitDy=0;entryX=0;entryY=1;entryDx=0;entryDy=0;" edge="1" parent="1" source="HFJ3twSGi6CWd9iWEhQo-30" target="HFJ3twSGi6CWd9iWEhQo-13">
          <mxGeometry relative="1" as="geometry">
            <mxPoint x="340" y="170" as="sourcePoint" />
            <mxPoint x="500" y="170" as="targetPoint" />
          </mxGeometry>
        </mxCell>
        <mxCell id="HFJ3twSGi6CWd9iWEhQo-36" value="ماه" style="ellipse;whiteSpace=wrap;html=1;" vertex="1" parent="1">
          <mxGeometry x="180" y="-30" width="60" height="30" as="geometry" />
        </mxCell>
        <mxCell id="HFJ3twSGi6CWd9iWEhQo-37" value="سال" style="ellipse;whiteSpace=wrap;html=1;" vertex="1" parent="1">
          <mxGeometry x="120" y="-40" width="60" height="30" as="geometry" />
        </mxCell>
        <mxCell id="HFJ3twSGi6CWd9iWEhQo-38" value="روز" style="ellipse;whiteSpace=wrap;html=1;" vertex="1" parent="1">
          <mxGeometry x="80" y="-20" width="60" height="30" as="geometry" />
        </mxCell>
        <mxCell id="HFJ3twSGi6CWd9iWEhQo-39" value="" style="endArrow=none;html=1;rounded=0;exitX=1;exitY=1;exitDx=0;exitDy=0;entryX=0;entryY=0;entryDx=0;entryDy=0;" edge="1" parent="1" source="HFJ3twSGi6CWd9iWEhQo-38" target="HFJ3twSGi6CWd9iWEhQo-9">
          <mxGeometry relative="1" as="geometry">
            <mxPoint x="340" y="170" as="sourcePoint" />
            <mxPoint x="500" y="170" as="targetPoint" />
          </mxGeometry>
        </mxCell>
        <mxCell id="HFJ3twSGi6CWd9iWEhQo-40" value="" style="endArrow=none;html=1;rounded=0;exitX=0.5;exitY=1;exitDx=0;exitDy=0;entryX=0.5;entryY=0;entryDx=0;entryDy=0;" edge="1" parent="1" source="HFJ3twSGi6CWd9iWEhQo-37" target="HFJ3twSGi6CWd9iWEhQo-9">
          <mxGeometry relative="1" as="geometry">
            <mxPoint x="340" y="170" as="sourcePoint" />
            <mxPoint x="500" y="170" as="targetPoint" />
          </mxGeometry>
        </mxCell>
        <mxCell id="HFJ3twSGi6CWd9iWEhQo-41" value="" style="endArrow=none;html=1;rounded=0;exitX=0.5;exitY=1;exitDx=0;exitDy=0;entryX=1;entryY=0;entryDx=0;entryDy=0;" edge="1" parent="1" source="HFJ3twSGi6CWd9iWEhQo-36" target="HFJ3twSGi6CWd9iWEhQo-9">
          <mxGeometry relative="1" as="geometry">
            <mxPoint x="340" y="170" as="sourcePoint" />
            <mxPoint x="500" y="170" as="targetPoint" />
          </mxGeometry>
        </mxCell>
        <mxCell id="HFJ3twSGi6CWd9iWEhQo-42" value="کارمند" style="whiteSpace=wrap;html=1;align=center;" vertex="1" parent="1">
          <mxGeometry x="570" y="150" width="80" height="40" as="geometry" />
        </mxCell>
        <mxCell id="HFJ3twSGi6CWd9iWEhQo-44" value="" style="shape=link;html=1;rounded=0;exitX=0.5;exitY=1;exitDx=0;exitDy=0;" edge="1" parent="1" source="HFJ3twSGi6CWd9iWEhQo-42" target="HFJ3twSGi6CWd9iWEhQo-46">
          <mxGeometry relative="1" as="geometry">
            <mxPoint x="340" y="170" as="sourcePoint" />
            <mxPoint x="500" y="170" as="targetPoint" />
          </mxGeometry>
        </mxCell>
        <mxCell id="HFJ3twSGi6CWd9iWEhQo-46" value="D" style="ellipse;whiteSpace=wrap;html=1;aspect=fixed;" vertex="1" parent="1">
          <mxGeometry x="590" y="210" width="40" height="40" as="geometry" />
        </mxCell>
        <mxCell id="HFJ3twSGi6CWd9iWEhQo-48" value="مسئول پذیرش" style="whiteSpace=wrap;html=1;align=center;" vertex="1" parent="1">
          <mxGeometry x="460" y="230" width="80" height="40" as="geometry" />
        </mxCell>
        <mxCell id="HFJ3twSGi6CWd9iWEhQo-49" value="کارمند بخش بایگانی" style="whiteSpace=wrap;html=1;align=center;" vertex="1" parent="1">
          <mxGeometry x="710" y="230" width="80" height="40" as="geometry" />
        </mxCell>
        <mxCell id="HFJ3twSGi6CWd9iWEhQo-50" value="پرستار" style="whiteSpace=wrap;html=1;align=center;" vertex="1" parent="1">
          <mxGeometry x="630" y="270" width="80" height="40" as="geometry" />
        </mxCell>
        <mxCell id="HFJ3twSGi6CWd9iWEhQo-51" value="دکتر" style="whiteSpace=wrap;html=1;align=center;" vertex="1" parent="1">
          <mxGeometry x="540" y="270" width="80" height="40" as="geometry" />
        </mxCell>
        <mxCell id="HFJ3twSGi6CWd9iWEhQo-52" value="" style="endArrow=none;html=1;rounded=0;entryX=0;entryY=0.5;entryDx=0;entryDy=0;exitX=1;exitY=0.5;exitDx=0;exitDy=0;" edge="1" parent="1" source="HFJ3twSGi6CWd9iWEhQo-48" target="HFJ3twSGi6CWd9iWEhQo-46">
          <mxGeometry relative="1" as="geometry">
            <mxPoint x="340" y="160" as="sourcePoint" />
            <mxPoint x="500" y="160" as="targetPoint" />
          </mxGeometry>
        </mxCell>
        <mxCell id="HFJ3twSGi6CWd9iWEhQo-53" value="" style="endArrow=none;html=1;rounded=0;entryX=0;entryY=1;entryDx=0;entryDy=0;exitX=0.5;exitY=0;exitDx=0;exitDy=0;" edge="1" parent="1" source="HFJ3twSGi6CWd9iWEhQo-51" target="HFJ3twSGi6CWd9iWEhQo-46">
          <mxGeometry relative="1" as="geometry">
            <mxPoint x="340" y="160" as="sourcePoint" />
            <mxPoint x="500" y="160" as="targetPoint" />
          </mxGeometry>
        </mxCell>
        <mxCell id="HFJ3twSGi6CWd9iWEhQo-54" value="" style="endArrow=none;html=1;rounded=0;entryX=1;entryY=1;entryDx=0;entryDy=0;exitX=0.425;exitY=-0.025;exitDx=0;exitDy=0;exitPerimeter=0;" edge="1" parent="1" source="HFJ3twSGi6CWd9iWEhQo-50" target="HFJ3twSGi6CWd9iWEhQo-46">
          <mxGeometry relative="1" as="geometry">
            <mxPoint x="340" y="160" as="sourcePoint" />
            <mxPoint x="500" y="160" as="targetPoint" />
          </mxGeometry>
        </mxCell>
        <mxCell id="HFJ3twSGi6CWd9iWEhQo-55" value="" style="endArrow=none;html=1;rounded=0;exitX=1;exitY=0.5;exitDx=0;exitDy=0;entryX=0;entryY=0.5;entryDx=0;entryDy=0;" edge="1" parent="1" source="HFJ3twSGi6CWd9iWEhQo-46" target="HFJ3twSGi6CWd9iWEhQo-49">
          <mxGeometry relative="1" as="geometry">
            <mxPoint x="340" y="160" as="sourcePoint" />
            <mxPoint x="500" y="160" as="targetPoint" />
          </mxGeometry>
        </mxCell>
        <mxCell id="HFJ3twSGi6CWd9iWEhQo-56" value="کد کارمندی" style="ellipse;whiteSpace=wrap;html=1;" vertex="1" parent="1">
          <mxGeometry x="480" y="150" width="60" height="30" as="geometry" />
        </mxCell>
        <mxCell id="HFJ3twSGi6CWd9iWEhQo-57" value="ساعت کاری" style="ellipse;whiteSpace=wrap;html=1;" vertex="1" parent="1">
          <mxGeometry x="680" y="140" width="60" height="30" as="geometry" />
        </mxCell>
        <mxCell id="HFJ3twSGi6CWd9iWEhQo-58" value="جنسیت" style="ellipse;whiteSpace=wrap;html=1;" vertex="1" parent="1">
          <mxGeometry x="640" y="100" width="60" height="30" as="geometry" />
        </mxCell>
        <mxCell id="HFJ3twSGi6CWd9iWEhQo-59" value="میزان حقوق" style="ellipse;whiteSpace=wrap;html=1;" vertex="1" parent="1">
          <mxGeometry x="560" y="100" width="60" height="30" as="geometry" />
        </mxCell>
        <mxCell id="HFJ3twSGi6CWd9iWEhQo-60" value="نام" style="ellipse;whiteSpace=wrap;html=1;" vertex="1" parent="1">
          <mxGeometry x="490" y="110" width="60" height="30" as="geometry" />
        </mxCell>
        <mxCell id="HFJ3twSGi6CWd9iWEhQo-61" value="" style="endArrow=none;html=1;rounded=0;entryX=1;entryY=1;entryDx=0;entryDy=0;exitX=0;exitY=1;exitDx=0;exitDy=0;" edge="1" parent="1" source="HFJ3twSGi6CWd9iWEhQo-42" target="HFJ3twSGi6CWd9iWEhQo-56">
          <mxGeometry relative="1" as="geometry">
            <mxPoint x="340" y="160" as="sourcePoint" />
            <mxPoint x="500" y="160" as="targetPoint" />
          </mxGeometry>
        </mxCell>
        <mxCell id="HFJ3twSGi6CWd9iWEhQo-62" value="" style="endArrow=none;html=1;rounded=0;exitX=1;exitY=1;exitDx=0;exitDy=0;entryX=0;entryY=0.5;entryDx=0;entryDy=0;" edge="1" parent="1" source="HFJ3twSGi6CWd9iWEhQo-60" target="HFJ3twSGi6CWd9iWEhQo-42">
          <mxGeometry relative="1" as="geometry">
            <mxPoint x="340" y="160" as="sourcePoint" />
            <mxPoint x="500" y="160" as="targetPoint" />
          </mxGeometry>
        </mxCell>
        <mxCell id="HFJ3twSGi6CWd9iWEhQo-63" value="" style="endArrow=none;html=1;rounded=0;exitX=0.5;exitY=1;exitDx=0;exitDy=0;entryX=0.5;entryY=0;entryDx=0;entryDy=0;" edge="1" parent="1" source="HFJ3twSGi6CWd9iWEhQo-59" target="HFJ3twSGi6CWd9iWEhQo-42">
          <mxGeometry relative="1" as="geometry">
            <mxPoint x="340" y="160" as="sourcePoint" />
            <mxPoint x="500" y="160" as="targetPoint" />
          </mxGeometry>
        </mxCell>
        <mxCell id="HFJ3twSGi6CWd9iWEhQo-64" value="" style="endArrow=none;html=1;rounded=0;entryX=0;entryY=1;entryDx=0;entryDy=0;exitX=0.75;exitY=0;exitDx=0;exitDy=0;" edge="1" parent="1" source="HFJ3twSGi6CWd9iWEhQo-42" target="HFJ3twSGi6CWd9iWEhQo-58">
          <mxGeometry relative="1" as="geometry">
            <mxPoint x="340" y="160" as="sourcePoint" />
            <mxPoint x="500" y="160" as="targetPoint" />
          </mxGeometry>
        </mxCell>
        <mxCell id="HFJ3twSGi6CWd9iWEhQo-65" value="" style="endArrow=none;html=1;rounded=0;entryX=0;entryY=0.5;entryDx=0;entryDy=0;exitX=1;exitY=0.5;exitDx=0;exitDy=0;" edge="1" parent="1" source="HFJ3twSGi6CWd9iWEhQo-42" target="HFJ3twSGi6CWd9iWEhQo-57">
          <mxGeometry relative="1" as="geometry">
            <mxPoint x="340" y="160" as="sourcePoint" />
            <mxPoint x="500" y="160" as="targetPoint" />
          </mxGeometry>
        </mxCell>
        <mxCell id="HFJ3twSGi6CWd9iWEhQo-70" value="ثبت" style="shape=rhombus;perimeter=rhombusPerimeter;whiteSpace=wrap;html=1;align=center;rotation=35;" vertex="1" parent="1">
          <mxGeometry x="310" y="190" width="90" height="50" as="geometry" />
        </mxCell>
        <mxCell id="HFJ3twSGi6CWd9iWEhQo-71" value="" style="endArrow=none;html=1;rounded=0;entryX=0;entryY=0.5;entryDx=0;entryDy=0;exitX=1;exitY=0.5;exitDx=0;exitDy=0;" edge="1" parent="1" source="HFJ3twSGi6CWd9iWEhQo-70" target="HFJ3twSGi6CWd9iWEhQo-48">
          <mxGeometry relative="1" as="geometry">
            <mxPoint x="340" y="160" as="sourcePoint" />
            <mxPoint x="500" y="160" as="targetPoint" />
          </mxGeometry>
        </mxCell>
        <mxCell id="HFJ3twSGi6CWd9iWEhQo-72" value="" style="endArrow=none;html=1;rounded=0;exitX=0.5;exitY=1;exitDx=0;exitDy=0;entryX=0;entryY=0.5;entryDx=0;entryDy=0;" edge="1" parent="1" source="HFJ3twSGi6CWd9iWEhQo-2" target="HFJ3twSGi6CWd9iWEhQo-70">
          <mxGeometry relative="1" as="geometry">
            <mxPoint x="340" y="160" as="sourcePoint" />
            <mxPoint x="500" y="160" as="targetPoint" />
          </mxGeometry>
        </mxCell>
        <mxCell id="HFJ3twSGi6CWd9iWEhQo-74" value="تاریخ مراجعه" style="ellipse;whiteSpace=wrap;html=1;" vertex="1" parent="1">
          <mxGeometry x="390" y="210" width="60" height="30" as="geometry" />
        </mxCell>
        <mxCell id="HFJ3twSGi6CWd9iWEhQo-75" value="کد پرونده" style="ellipse;whiteSpace=wrap;html=1;rotation=45;" vertex="1" parent="1">
          <mxGeometry x="370" y="170" width="60" height="30" as="geometry" />
        </mxCell>
        <mxCell id="HFJ3twSGi6CWd9iWEhQo-76" value="نام دکتر ویزیت کننده" style="ellipse;whiteSpace=wrap;html=1;" vertex="1" parent="1">
          <mxGeometry x="305" y="140" width="60" height="30" as="geometry" />
        </mxCell>
        <mxCell id="HFJ3twSGi6CWd9iWEhQo-77" value="" style="endArrow=none;html=1;rounded=0;entryX=0.5;entryY=0;entryDx=0;entryDy=0;" edge="1" parent="1" source="HFJ3twSGi6CWd9iWEhQo-76" target="HFJ3twSGi6CWd9iWEhQo-70">
          <mxGeometry relative="1" as="geometry">
            <mxPoint x="340" y="150" as="sourcePoint" />
            <mxPoint x="500" y="150" as="targetPoint" />
          </mxGeometry>
        </mxCell>
        <mxCell id="HFJ3twSGi6CWd9iWEhQo-78" value="" style="endArrow=none;html=1;rounded=0;entryX=0.5;entryY=0;entryDx=0;entryDy=0;" edge="1" parent="1" source="HFJ3twSGi6CWd9iWEhQo-74" target="HFJ3twSGi6CWd9iWEhQo-70">
          <mxGeometry relative="1" as="geometry">
            <mxPoint x="340" y="150" as="sourcePoint" />
            <mxPoint x="500" y="150" as="targetPoint" />
          </mxGeometry>
        </mxCell>
        <mxCell id="HFJ3twSGi6CWd9iWEhQo-79" value="" style="endArrow=none;html=1;rounded=0;exitX=0.5;exitY=0;exitDx=0;exitDy=0;entryX=0.383;entryY=1;entryDx=0;entryDy=0;entryPerimeter=0;" edge="1" parent="1" source="HFJ3twSGi6CWd9iWEhQo-70" target="HFJ3twSGi6CWd9iWEhQo-75">
          <mxGeometry relative="1" as="geometry">
            <mxPoint x="340" y="150" as="sourcePoint" />
            <mxPoint x="500" y="150" as="targetPoint" />
          </mxGeometry>
        </mxCell>
        <mxCell id="HFJ3twSGi6CWd9iWEhQo-80" value="بیماری" style="rounded=0;whiteSpace=wrap;html=1;" vertex="1" parent="1">
          <mxGeometry x="110" y="310" width="80" height="40" as="geometry" />
        </mxCell>
        <mxCell id="HFJ3twSGi6CWd9iWEhQo-81" value="دارد" style="shape=rhombus;perimeter=rhombusPerimeter;whiteSpace=wrap;html=1;align=center;rotation=105;" vertex="1" parent="1">
          <mxGeometry x="140" y="220" width="90" height="50" as="geometry" />
        </mxCell>
        <mxCell id="HFJ3twSGi6CWd9iWEhQo-82" value="" style="endArrow=none;html=1;rounded=0;entryX=0.5;entryY=0;entryDx=0;entryDy=0;exitX=1;exitY=0.5;exitDx=0;exitDy=0;" edge="1" parent="1" source="HFJ3twSGi6CWd9iWEhQo-81" target="HFJ3twSGi6CWd9iWEhQo-80">
          <mxGeometry relative="1" as="geometry">
            <mxPoint x="175" y="180" as="sourcePoint" />
            <mxPoint x="155" y="290" as="targetPoint" />
          </mxGeometry>
        </mxCell>
        <mxCell id="HFJ3twSGi6CWd9iWEhQo-83" value="" style="endArrow=none;html=1;rounded=0;exitX=0.25;exitY=1;exitDx=0;exitDy=0;entryX=0;entryY=0.5;entryDx=0;entryDy=0;" edge="1" parent="1" target="HFJ3twSGi6CWd9iWEhQo-81" source="HFJ3twSGi6CWd9iWEhQo-2">
          <mxGeometry relative="1" as="geometry">
            <mxPoint x="225" y="120" as="sourcePoint" />
            <mxPoint x="180" y="190" as="targetPoint" />
          </mxGeometry>
        </mxCell>
        <mxCell id="HFJ3twSGi6CWd9iWEhQo-84" value="" style="endArrow=none;html=1;rounded=0;exitX=1;exitY=0;exitDx=0;exitDy=0;entryX=0.5;entryY=1;entryDx=0;entryDy=0;" edge="1" parent="1" source="HFJ3twSGi6CWd9iWEhQo-80" target="HFJ3twSGi6CWd9iWEhQo-70">
          <mxGeometry relative="1" as="geometry">
            <mxPoint x="340" y="150" as="sourcePoint" />
            <mxPoint x="340" y="250" as="targetPoint" />
          </mxGeometry>
        </mxCell>
        <mxCell id="HFJ3twSGi6CWd9iWEhQo-85" value="تجویز" style="shape=rhombus;perimeter=rhombusPerimeter;whiteSpace=wrap;html=1;align=center;" vertex="1" parent="1">
          <mxGeometry x="260" y="320" width="120" height="60" as="geometry" />
        </mxCell>
        <mxCell id="HFJ3twSGi6CWd9iWEhQo-86" value="" style="endArrow=none;html=1;rounded=0;entryX=0.5;entryY=0;entryDx=0;entryDy=0;" edge="1" parent="1" target="HFJ3twSGi6CWd9iWEhQo-85">
          <mxGeometry relative="1" as="geometry">
            <mxPoint x="260" y="140" as="sourcePoint" />
            <mxPoint x="500" y="210" as="targetPoint" />
          </mxGeometry>
        </mxCell>
        <mxCell id="HFJ3twSGi6CWd9iWEhQo-87" value="" style="endArrow=none;html=1;rounded=0;exitX=0.5;exitY=1;exitDx=0;exitDy=0;entryX=0;entryY=0.5;entryDx=0;entryDy=0;" edge="1" parent="1" source="HFJ3twSGi6CWd9iWEhQo-80" target="HFJ3twSGi6CWd9iWEhQo-85">
          <mxGeometry relative="1" as="geometry">
            <mxPoint x="340" y="210" as="sourcePoint" />
            <mxPoint x="500" y="210" as="targetPoint" />
          </mxGeometry>
        </mxCell>
        <mxCell id="HFJ3twSGi6CWd9iWEhQo-88" value="" style="endArrow=none;html=1;rounded=0;entryX=0;entryY=1;entryDx=0;entryDy=0;exitX=1;exitY=0.5;exitDx=0;exitDy=0;" edge="1" parent="1" source="HFJ3twSGi6CWd9iWEhQo-85" target="HFJ3twSGi6CWd9iWEhQo-51">
          <mxGeometry relative="1" as="geometry">
            <mxPoint x="340" y="210" as="sourcePoint" />
            <mxPoint x="500" y="210" as="targetPoint" />
          </mxGeometry>
        </mxCell>
        <mxCell id="HFJ3twSGi6CWd9iWEhQo-91" value="کد طبابت" style="ellipse;whiteSpace=wrap;html=1;" vertex="1" parent="1">
          <mxGeometry x="460" y="280" width="60" height="30" as="geometry" />
        </mxCell>
        <mxCell id="HFJ3twSGi6CWd9iWEhQo-92" value="" style="endArrow=none;html=1;rounded=0;entryX=0;entryY=0.5;entryDx=0;entryDy=0;exitX=1;exitY=0.5;exitDx=0;exitDy=0;" edge="1" parent="1" source="HFJ3twSGi6CWd9iWEhQo-91" target="HFJ3twSGi6CWd9iWEhQo-51">
          <mxGeometry relative="1" as="geometry">
            <mxPoint x="340" y="210" as="sourcePoint" />
            <mxPoint x="500" y="210" as="targetPoint" />
          </mxGeometry>
        </mxCell>
        <mxCell id="HFJ3twSGi6CWd9iWEhQo-93" value="" style="shape=link;html=1;rounded=0;exitX=0.5;exitY=1;exitDx=0;exitDy=0;" edge="1" parent="1" target="HFJ3twSGi6CWd9iWEhQo-94">
          <mxGeometry relative="1" as="geometry">
            <mxPoint x="580" y="310" as="sourcePoint" />
            <mxPoint x="470" y="290" as="targetPoint" />
          </mxGeometry>
        </mxCell>
        <mxCell id="HFJ3twSGi6CWd9iWEhQo-94" value="D" style="ellipse;whiteSpace=wrap;html=1;aspect=fixed;" vertex="1" parent="1">
          <mxGeometry x="560" y="330" width="40" height="40" as="geometry" />
        </mxCell>
        <mxCell id="HFJ3twSGi6CWd9iWEhQo-95" value="عمومی" style="whiteSpace=wrap;html=1;align=center;" vertex="1" parent="1">
          <mxGeometry x="460" y="350" width="80" height="40" as="geometry" />
        </mxCell>
        <mxCell id="HFJ3twSGi6CWd9iWEhQo-96" value="متخصص" style="whiteSpace=wrap;html=1;align=center;" vertex="1" parent="1">
          <mxGeometry x="540" y="390" width="80" height="40" as="geometry" />
        </mxCell>
        <mxCell id="HFJ3twSGi6CWd9iWEhQo-97" value="فوق تخصص" style="whiteSpace=wrap;html=1;align=center;" vertex="1" parent="1">
          <mxGeometry x="620" y="350" width="80" height="40" as="geometry" />
        </mxCell>
        <mxCell id="HFJ3twSGi6CWd9iWEhQo-98" value="" style="endArrow=none;html=1;rounded=0;entryX=0;entryY=0.675;entryDx=0;entryDy=0;entryPerimeter=0;exitX=1;exitY=0.75;exitDx=0;exitDy=0;" edge="1" parent="1" source="HFJ3twSGi6CWd9iWEhQo-95" target="HFJ3twSGi6CWd9iWEhQo-94">
          <mxGeometry relative="1" as="geometry">
            <mxPoint x="340" y="300" as="sourcePoint" />
            <mxPoint x="500" y="300" as="targetPoint" />
          </mxGeometry>
        </mxCell>
        <mxCell id="HFJ3twSGi6CWd9iWEhQo-99" value="" style="endArrow=none;html=1;rounded=0;entryX=0.5;entryY=1;entryDx=0;entryDy=0;exitX=0.5;exitY=0;exitDx=0;exitDy=0;" edge="1" parent="1" source="HFJ3twSGi6CWd9iWEhQo-96" target="HFJ3twSGi6CWd9iWEhQo-94">
          <mxGeometry relative="1" as="geometry">
            <mxPoint x="340" y="300" as="sourcePoint" />
            <mxPoint x="500" y="300" as="targetPoint" />
          </mxGeometry>
        </mxCell>
        <mxCell id="HFJ3twSGi6CWd9iWEhQo-100" value="" style="endArrow=none;html=1;rounded=0;entryX=1;entryY=0.5;entryDx=0;entryDy=0;exitX=0;exitY=0.75;exitDx=0;exitDy=0;" edge="1" parent="1" source="HFJ3twSGi6CWd9iWEhQo-97" target="HFJ3twSGi6CWd9iWEhQo-94">
          <mxGeometry relative="1" as="geometry">
            <mxPoint x="340" y="300" as="sourcePoint" />
            <mxPoint x="500" y="300" as="targetPoint" />
          </mxGeometry>
        </mxCell>
        <mxCell id="HFJ3twSGi6CWd9iWEhQo-102" value="" style="endArrow=none;html=1;rounded=0;exitX=0.5;exitY=1;exitDx=0;exitDy=0;" edge="1" parent="1" source="HFJ3twSGi6CWd9iWEhQo-85">
          <mxGeometry relative="1" as="geometry">
            <mxPoint x="340" y="340" as="sourcePoint" />
            <mxPoint x="320" y="430" as="targetPoint" />
          </mxGeometry>
        </mxCell>
        <mxCell id="HFJ3twSGi6CWd9iWEhQo-104" value="کد طبابت" style="ellipse;whiteSpace=wrap;html=1;" vertex="1" parent="1">
          <mxGeometry x="260" y="500" width="60" height="30" as="geometry" />
        </mxCell>
        <mxCell id="HFJ3twSGi6CWd9iWEhQo-105" value="کد طبابت" style="ellipse;whiteSpace=wrap;html=1;" vertex="1" parent="1">
          <mxGeometry x="320" y="500" width="60" height="30" as="geometry" />
        </mxCell>
        <mxCell id="HFJ3twSGi6CWd9iWEhQo-107" value="کد طبابت" style="ellipse;whiteSpace=wrap;html=1;" vertex="1" parent="1">
          <mxGeometry x="220" y="460" width="60" height="30" as="geometry" />
        </mxCell>
        <mxCell id="HFJ3twSGi6CWd9iWEhQo-108" value="کد طبابت" style="ellipse;whiteSpace=wrap;html=1;" vertex="1" parent="1">
          <mxGeometry x="370" y="470" width="60" height="30" as="geometry" />
        </mxCell>
        <mxCell id="HFJ3twSGi6CWd9iWEhQo-109" value="" style="endArrow=none;html=1;rounded=0;exitX=0;exitY=1;exitDx=0;exitDy=0;entryX=1;entryY=0;entryDx=0;entryDy=0;" edge="1" parent="1" source="HFJ3twSGi6CWd9iWEhQo-126" target="HFJ3twSGi6CWd9iWEhQo-107">
          <mxGeometry relative="1" as="geometry">
            <mxPoint x="290" y="460" as="sourcePoint" />
            <mxPoint x="690" y="410" as="targetPoint" />
          </mxGeometry>
        </mxCell>
        <mxCell id="HFJ3twSGi6CWd9iWEhQo-110" value="" style="endArrow=none;html=1;rounded=0;exitX=0.341;exitY=0.958;exitDx=0;exitDy=0;entryX=0.733;entryY=0;entryDx=0;entryDy=0;entryPerimeter=0;exitPerimeter=0;" edge="1" parent="1" source="HFJ3twSGi6CWd9iWEhQo-126" target="HFJ3twSGi6CWd9iWEhQo-104">
          <mxGeometry relative="1" as="geometry">
            <mxPoint x="310" y="470" as="sourcePoint" />
            <mxPoint x="690" y="410" as="targetPoint" />
          </mxGeometry>
        </mxCell>
        <mxCell id="HFJ3twSGi6CWd9iWEhQo-111" value="" style="endArrow=none;html=1;rounded=0;exitX=0.5;exitY=1;exitDx=0;exitDy=0;entryX=0.5;entryY=0;entryDx=0;entryDy=0;" edge="1" parent="1" source="HFJ3twSGi6CWd9iWEhQo-126" target="HFJ3twSGi6CWd9iWEhQo-105">
          <mxGeometry relative="1" as="geometry">
            <mxPoint x="330" y="470" as="sourcePoint" />
            <mxPoint x="690" y="410" as="targetPoint" />
          </mxGeometry>
        </mxCell>
        <mxCell id="HFJ3twSGi6CWd9iWEhQo-112" value="" style="endArrow=none;html=1;rounded=0;exitX=1;exitY=1;exitDx=0;exitDy=0;entryX=0;entryY=0;entryDx=0;entryDy=0;" edge="1" parent="1" source="HFJ3twSGi6CWd9iWEhQo-126" target="HFJ3twSGi6CWd9iWEhQo-108">
          <mxGeometry relative="1" as="geometry">
            <mxPoint x="370" y="460" as="sourcePoint" />
            <mxPoint x="690" y="410" as="targetPoint" />
          </mxGeometry>
        </mxCell>
        <mxCell id="HFJ3twSGi6CWd9iWEhQo-113" value="شرکت بیمه" style="rounded=0;whiteSpace=wrap;html=1;" vertex="1" parent="1">
          <mxGeometry x="-130" y="310" width="80" height="40" as="geometry" />
        </mxCell>
        <mxCell id="HFJ3twSGi6CWd9iWEhQo-114" value="قراردارد دارد" style="shape=rhombus;perimeter=rhombusPerimeter;whiteSpace=wrap;html=1;align=center;rotation=-27;" vertex="1" parent="1">
          <mxGeometry x="-20.004997313159848" y="239.99713831057107" width="90" height="50" as="geometry" />
        </mxCell>
        <mxCell id="HFJ3twSGi6CWd9iWEhQo-115" value="" style="endArrow=none;html=1;rounded=0;exitX=1;exitY=0;exitDx=0;exitDy=0;entryX=0;entryY=0.5;entryDx=0;entryDy=0;" edge="1" parent="1" source="HFJ3twSGi6CWd9iWEhQo-113" target="HFJ3twSGi6CWd9iWEhQo-114">
          <mxGeometry relative="1" as="geometry">
            <mxPoint x="130" y="260" as="sourcePoint" />
            <mxPoint x="290" y="260" as="targetPoint" />
          </mxGeometry>
        </mxCell>
        <mxCell id="HFJ3twSGi6CWd9iWEhQo-116" value="" style="endArrow=none;html=1;rounded=0;exitX=1;exitY=0.5;exitDx=0;exitDy=0;entryX=0;entryY=1;entryDx=0;entryDy=0;" edge="1" parent="1" source="HFJ3twSGi6CWd9iWEhQo-114" target="HFJ3twSGi6CWd9iWEhQo-2">
          <mxGeometry relative="1" as="geometry">
            <mxPoint x="130" y="260" as="sourcePoint" />
            <mxPoint x="290" y="260" as="targetPoint" />
          </mxGeometry>
        </mxCell>
        <mxCell id="HFJ3twSGi6CWd9iWEhQo-117" value="آدرس" style="ellipse;whiteSpace=wrap;html=1;" vertex="1" parent="1">
          <mxGeometry x="-110" y="250" width="60" height="30" as="geometry" />
        </mxCell>
        <mxCell id="HFJ3twSGi6CWd9iWEhQo-118" value="&lt;u&gt;نام&lt;/u&gt;" style="ellipse;whiteSpace=wrap;html=1;" vertex="1" parent="1">
          <mxGeometry x="-180" y="250" width="60" height="30" as="geometry" />
        </mxCell>
        <mxCell id="HFJ3twSGi6CWd9iWEhQo-120" value="شماره تلفن" style="ellipse;shape=doubleEllipse;margin=3;whiteSpace=wrap;html=1;align=center;" vertex="1" parent="1">
          <mxGeometry x="-200" y="290" width="60" height="30" as="geometry" />
        </mxCell>
        <mxCell id="HFJ3twSGi6CWd9iWEhQo-121" value="" style="endArrow=none;html=1;rounded=0;exitX=1;exitY=1;exitDx=0;exitDy=0;entryX=0;entryY=0.5;entryDx=0;entryDy=0;" edge="1" parent="1" source="HFJ3twSGi6CWd9iWEhQo-120" target="HFJ3twSGi6CWd9iWEhQo-113">
          <mxGeometry relative="1" as="geometry">
            <mxPoint x="90" y="340" as="sourcePoint" />
            <mxPoint x="250" y="340" as="targetPoint" />
          </mxGeometry>
        </mxCell>
        <mxCell id="HFJ3twSGi6CWd9iWEhQo-122" value="" style="endArrow=none;html=1;rounded=0;exitX=0.628;exitY=1;exitDx=0;exitDy=0;exitPerimeter=0;entryX=0.25;entryY=0;entryDx=0;entryDy=0;" edge="1" parent="1" source="HFJ3twSGi6CWd9iWEhQo-118" target="HFJ3twSGi6CWd9iWEhQo-113">
          <mxGeometry relative="1" as="geometry">
            <mxPoint x="90" y="340" as="sourcePoint" />
            <mxPoint x="250" y="340" as="targetPoint" />
          </mxGeometry>
        </mxCell>
        <mxCell id="HFJ3twSGi6CWd9iWEhQo-123" value="" style="endArrow=none;html=1;rounded=0;exitX=0.5;exitY=1;exitDx=0;exitDy=0;" edge="1" parent="1" source="HFJ3twSGi6CWd9iWEhQo-117" target="HFJ3twSGi6CWd9iWEhQo-113">
          <mxGeometry relative="1" as="geometry">
            <mxPoint x="90" y="340" as="sourcePoint" />
            <mxPoint x="250" y="340" as="targetPoint" />
          </mxGeometry>
        </mxCell>
        <mxCell id="HFJ3twSGi6CWd9iWEhQo-124" value="نوع قرار داد" style="ellipse;whiteSpace=wrap;html=1;" vertex="1" parent="1">
          <mxGeometry x="-50" y="190" width="60" height="30" as="geometry" />
        </mxCell>
        <mxCell id="HFJ3twSGi6CWd9iWEhQo-125" value="" style="endArrow=none;html=1;rounded=0;exitX=0.5;exitY=1;exitDx=0;exitDy=0;entryX=0.5;entryY=0;entryDx=0;entryDy=0;" edge="1" parent="1" source="HFJ3twSGi6CWd9iWEhQo-124" target="HFJ3twSGi6CWd9iWEhQo-114">
          <mxGeometry relative="1" as="geometry">
            <mxPoint x="90" y="340" as="sourcePoint" />
            <mxPoint x="250" y="340" as="targetPoint" />
          </mxGeometry>
        </mxCell>
        <mxCell id="HFJ3twSGi6CWd9iWEhQo-126" value="دارو" style="ellipse;whiteSpace=wrap;html=1;" vertex="1" parent="1">
          <mxGeometry x="290" y="430" width="60" height="30" as="geometry" />
        </mxCell>
        <mxCell id="HFJ3twSGi6CWd9iWEhQo-127" value="نوع" style="ellipse;whiteSpace=wrap;html=1;" vertex="1" parent="1">
          <mxGeometry x="40" y="360" width="60" height="30" as="geometry" />
        </mxCell>
        <mxCell id="HFJ3twSGi6CWd9iWEhQo-128" value="" style="endArrow=none;html=1;rounded=0;exitX=0;exitY=0.75;exitDx=0;exitDy=0;entryX=0.5;entryY=0;entryDx=0;entryDy=0;" edge="1" parent="1" source="HFJ3twSGi6CWd9iWEhQo-80" target="HFJ3twSGi6CWd9iWEhQo-127">
          <mxGeometry relative="1" as="geometry">
            <mxPoint x="240" y="300" as="sourcePoint" />
            <mxPoint x="400" y="300" as="targetPoint" />
          </mxGeometry>
        </mxCell>
        <mxCell id="HFJ3twSGi6CWd9iWEhQo-129" value="اتاق" style="rounded=0;whiteSpace=wrap;html=1;" vertex="1" parent="1">
          <mxGeometry x="20" y="560" width="80" height="40" as="geometry" />
        </mxCell>
        <mxCell id="HFJ3twSGi6CWd9iWEhQo-140" value="بستری" style="shape=rhombus;perimeter=rhombusPerimeter;whiteSpace=wrap;html=1;align=center;rotation=-60;" vertex="1" parent="1">
          <mxGeometry x="70" y="440" width="120" height="60" as="geometry" />
        </mxCell>
        <mxCell id="HFJ3twSGi6CWd9iWEhQo-141" value="" style="endArrow=none;html=1;rounded=0;exitX=0.366;exitY=1.079;exitDx=0;exitDy=0;exitPerimeter=0;entryX=1;entryY=0.5;entryDx=0;entryDy=0;" edge="1" parent="1" source="HFJ3twSGi6CWd9iWEhQo-2" target="HFJ3twSGi6CWd9iWEhQo-140">
          <mxGeometry relative="1" as="geometry">
            <mxPoint x="240" y="350" as="sourcePoint" />
            <mxPoint x="400" y="350" as="targetPoint" />
          </mxGeometry>
        </mxCell>
        <mxCell id="HFJ3twSGi6CWd9iWEhQo-143" value="" style="endArrow=none;html=1;rounded=0;exitX=0;exitY=0.5;exitDx=0;exitDy=0;entryX=0.75;entryY=0;entryDx=0;entryDy=0;" edge="1" parent="1" source="HFJ3twSGi6CWd9iWEhQo-140" target="HFJ3twSGi6CWd9iWEhQo-129">
          <mxGeometry relative="1" as="geometry">
            <mxPoint x="240" y="350" as="sourcePoint" />
            <mxPoint x="400" y="350" as="targetPoint" />
          </mxGeometry>
        </mxCell>
        <mxCell id="HFJ3twSGi6CWd9iWEhQo-144" value="شماره اتاق" style="ellipse;whiteSpace=wrap;html=1;" vertex="1" parent="1">
          <mxGeometry x="-10" y="620" width="60" height="30" as="geometry" />
        </mxCell>
        <mxCell id="HFJ3twSGi6CWd9iWEhQo-145" value="نوع" style="ellipse;whiteSpace=wrap;html=1;" vertex="1" parent="1">
          <mxGeometry x="80" y="620" width="60" height="30" as="geometry" />
        </mxCell>
        <mxCell id="HFJ3twSGi6CWd9iWEhQo-146" value="" style="endArrow=none;html=1;rounded=0;exitX=0.5;exitY=0;exitDx=0;exitDy=0;entryX=0.5;entryY=0;entryDx=0;entryDy=0;" edge="1" parent="1" source="HFJ3twSGi6CWd9iWEhQo-144" target="HFJ3twSGi6CWd9iWEhQo-145">
          <mxGeometry relative="1" as="geometry">
            <mxPoint x="240" y="530" as="sourcePoint" />
            <mxPoint x="400" y="530" as="targetPoint" />
            <Array as="points">
              <mxPoint x="60" y="600" />
            </Array>
          </mxGeometry>
        </mxCell>
        <mxCell id="HFJ3twSGi6CWd9iWEhQo-147" value="کد پرستاری" style="ellipse;whiteSpace=wrap;html=1;" vertex="1" parent="1">
          <mxGeometry x="730" y="280" width="60" height="30" as="geometry" />
        </mxCell>
        <mxCell id="HFJ3twSGi6CWd9iWEhQo-148" value="" style="endArrow=none;html=1;rounded=0;entryX=0;entryY=0.5;entryDx=0;entryDy=0;exitX=1;exitY=0.5;exitDx=0;exitDy=0;" edge="1" parent="1" source="HFJ3twSGi6CWd9iWEhQo-50" target="HFJ3twSGi6CWd9iWEhQo-147">
          <mxGeometry relative="1" as="geometry">
            <mxPoint x="280" y="440" as="sourcePoint" />
            <mxPoint x="440" y="440" as="targetPoint" />
          </mxGeometry>
        </mxCell>
        <mxCell id="HFJ3twSGi6CWd9iWEhQo-149" value="" style="endArrow=none;html=1;rounded=0;entryX=1;entryY=1;entryDx=0;entryDy=0;exitX=1;exitY=0.5;exitDx=0;exitDy=0;" edge="1" parent="1" source="HFJ3twSGi6CWd9iWEhQo-150" target="HFJ3twSGi6CWd9iWEhQo-50">
          <mxGeometry relative="1" as="geometry">
            <mxPoint x="710" y="610" as="sourcePoint" />
            <mxPoint x="440" y="440" as="targetPoint" />
          </mxGeometry>
        </mxCell>
        <mxCell id="HFJ3twSGi6CWd9iWEhQo-150" value="نظارت" style="shape=rhombus;perimeter=rhombusPerimeter;whiteSpace=wrap;html=1;align=center;rotation=0;" vertex="1" parent="1">
          <mxGeometry x="590.0007621135331" y="560.0015242270663" width="120" height="60" as="geometry" />
        </mxCell>
        <mxCell id="HFJ3twSGi6CWd9iWEhQo-151" value="" style="endArrow=none;html=1;rounded=0;entryX=0;entryY=0.5;entryDx=0;entryDy=0;exitX=1;exitY=0.75;exitDx=0;exitDy=0;" edge="1" parent="1" source="HFJ3twSGi6CWd9iWEhQo-129" target="HFJ3twSGi6CWd9iWEhQo-150">
          <mxGeometry relative="1" as="geometry">
            <mxPoint x="280" y="440" as="sourcePoint" />
            <mxPoint x="440" y="440" as="targetPoint" />
          </mxGeometry>
        </mxCell>
      </root>
    </mxGraphModel>
  </diagram>
</mxfile>
